# xmcd
#
# Track frame offsets:
#	150
#	25087
#	40792
#	57718
#	78855
#	92439
#	114322
#	134140
#	144822
#	164650
#	179729
#	199298
#	216339
#
# Disc length: 3060 seconds
# Revision: 0
# Processed by: cddbd v1.5.2PL0 Copyright (c) Steve Scherf et al.
# Submitted via: dBpowerAMP V12.0
#
DISCID=bd0bf20d
DTITLE=Arsis - A Celebration of Guilt
DYEAR=2004
DGENRE=Metal
TTITLE0=The Face of My Innocence
TTITLE1=Maddening Disdain
TTITLE2=Seven Whispers Fell Silent
TTITLE3=Return
TTITLE4=Worship Depraved
TTITLE5=Carnal Ways to Recreate the Heart
TTITLE6=Dust and Guilt
TTITLE7=Elegant and Perverse
TTITLE8=The Sadistic Motives Behind Bereavement Letters
TTITLE9=Looking to Nothing
TTITLE10=Wholly Night
TTITLE11=Painted Eyes [Bonus Track]
TTITLE12=Veil of Mourning Black [Bonus Track]
EXTD=
EXTT0=
EXTT1=
EXTT2=
EXTT3=
EXTT4=
EXTT5=
EXTT6=
EXTT7=
EXTT8=
EXTT9=
EXTT10=
EXTT11=
EXTT12=
PLAYORDER=
